{"title":"Fifty Shades of Black (2016) WEBRip MIC Audio x264 - Exclusive","uid":13660918,"size":1301163043,"categoryP":"video","categoryS":"movies","magnet":"?xt=urn:btih:23878f124f52e31e08533a075450d9e9ab6d22d6&amp;dn=Fifty+Shades+of+Black+%282016%29+WEBRip+MIC+Audio+x264+-+Exclusive&amp;tr=udp%3A%2F%2Ftracker.leechers-paradise.org%3A6969&amp;tr=udp%3A%2F%2Fzer0day.ch%3A1337&amp;tr=udp%3A%2F%2Fopen.demonii.com%3A1337&amp;tr=udp%3A%2F%2Ftracker.coppersurfer.tk%3A6969&amp;tr=udp%3A%2F%2Fexodus.desync.com%3A6969","seeders":7,"leechers":4,"uploader":"tykoon123","files":1,"time":1456244111,"description":"\n\r\nVideo: Russian WEB-DL\r\nAudio: THX FTP for MIC English Audio :)\r\n\r\nused delay for sync, so lost 30 secs of english audio.\r\n\r\nFormat                                   : Matroska\r\nFormat version                           : Version 4 / Version 2\r\nFile size                                : 1.21 GiB\r\nDuration                                 : 1h 24mn\r\nOverall bit rate                         : 2 047 Kbps\r\nEncoded date                             : UTC 2016-02-23 14:35:04\r\nWriting application                      : mkvmerge v8.8.0 ('Wind at my back') 32bit\r\n\r\nVideo\r\nID                                       : 1\r\nFormat                                   : MPEG-4 Visual\r\nFormat profile                           : Advanced   \r\nFormat settings, BVOP                    : Yes\r\nFormat settings, QPel                    : No\r\nFormat settings, GMC                     : No warppoints\r\nFormat settings, Matrix                  : Default (MPEG)\r\nCodec ID                                 : V_MS/VFW/FOURCC / XVID\r\nCodec ID/Hint                            : XviD\r\nDuration                                 : 1h 24mn\r\nBit rate                                 : 1 878 Kbps\r\nWidth                                    : 720 pixels\r\nHeight                                   : 304 pixels\r\nDisplay aspect ratio                     : 2.35:1\r\nFrame rate mode                          : Constant\r\nFrame rate                               : 25.000 fps\r\nColor space                              : YUV\r\nChroma subsampling                       : 4:2:0\r\nBit depth                                : 8 bits\r\nScan type                                : Progressive\r\nCompression mode                         : Lossy\r\nBits/(Pixel*Frame)                       : 0.343\r\nStream size                              : 1.11 GiB (92%)\r\nWriting library                          : XviD 1.2.1 (UTC 2008-12-04)\r\nDefault                                  : Yes\r\nForced                                   : No\r\n\r\nAudio\r\nID                                       : 2\r\nFormat                                   : AC-3\r\nFormat/Info                              : Audio Coding 3\r\nMode extension                           : CM (complete main)\r\nFormat settings, Endianness              : Big\r\nCodec ID                                 : A_AC3\r\nDuration                                 : 1h 24mn\r\nBit rate mode                            : Constant\r\nBit rate                                 : 128 Kbps\r\nChannel(s)                               : 2 channels\r\nChannel positions                        : Front: L R\r\nSampling rate                            : 48.0 KHz\r\nBit depth                                : 16 bits\r\nCompression mode                         : Lossy\r\nStream size                              : 77.6 MiB (6%)\r\nDefault                                  : Yes\r\nForced                                   : No\r\n\r\n\r\n\r\nScreens","torrent":{"xt":"urn:btih:23878f124f52e31e08533a075450d9e9ab6d22d6","amp;dn":"Fifty+Shades+of+Black+%282016%29+WEBRip+MIC+Audio+x264+-+Exclusive","amp;tr":["udp%3A%2F%2Ftracker.leechers-paradise.org%3A6969","udp%3A%2F%2Fzer0day.ch%3A1337","udp%3A%2F%2Fopen.demonii.com%3A1337","udp%3A%2F%2Ftracker.coppersurfer.tk%3A6969","udp%3A%2F%2Fexodus.desync.com%3A6969"],"infoHash":"23878f124f52e31e08533a075450d9e9ab6d22d6","infoHashBuffer":{"type":"Buffer","data":[35,135,143,18,79,82,227,30,8,83,58,7,84,80,217,233,171,109,34,214]},"announce":[],"urlList":[]}}